# xmcd CD database file
#
# Track frame offsets:
#	150
#	21297
#	39795
#	53450
#	69485
#	86422
#	103887
#	117932
#	136692
#	153859
#	171135
#	188835
#	207259
#	223362
#	241285
#
# Disc length: 3466 seconds
#
# Revision: 2
# Processed by: cddbd v1.5.1PL2 Copyright (c) Steve Scherf et al.
# Submitted via: CDex 1.51
#
DISCID=c50d880f
DTITLE=João Paulo and Daniel - vol. 7
DYEAR=1996
DGENRE=Country
TTITLE0=Estou Apaixonado (Estoy Enamorado)
TTITLE1=Com Qual Carícia
TTITLE2=Pedindo Bis
TTITLE3=Não Precisa Perdão
TTITLE4=Porque Fui Te  Amar Assim
TTITLE5=Mil Loucuras De Amor
TTITLE6=Fazenda São Francisco
TTITLE7=Minha Estrela Perdida
TTITLE8=Me Ame Sem Medo
TTITLE9=A Culpa É Sua
TTITLE10=Saudade Maluca
TTITLE11=Chovendo Em Meu Olhar
TTITLE12=Frente A Frente
TTITLE13=Está Faltando Você
TTITLE14=Nelore Valente
EXTD=YEAR: 1996
EXTT0=
EXTT1=
EXTT2=
EXTT3=
EXTT4=
EXTT5=
EXTT6=
EXTT7=
EXTT8=
EXTT9=
EXTT10=
EXTT11=
EXTT12=
EXTT13=
EXTT14=
PLAYORDER=
